<svg xmlns="http://www.w3.org/2000/svg" viewBox="0 0 512 512" style="enable-background:new 0 0 512 512" xml:space="preserve"><path d="M469.163 323.902c-5.633 0-10.199 4.567-10.199 10.199v117.291c0 5.633 4.566 10.199 10.199 10.199s10.199-4.567 10.199-10.199V334.101c.001-5.632-4.566-10.199-10.199-10.199zM469.163 283.105c-5.633 0-10.199 4.567-10.199 10.199v7.139c0 5.633 4.566 10.199 10.199 10.199s10.199-4.567 10.199-10.199v-7.139c.001-5.631-4.566-10.199-10.199-10.199z"/><path d="M501.801 57.625h-42.837V26.008c0-5.632-4.566-10.199-10.199-10.199s-10.199 4.567-10.199 10.199v31.617h-42.837V26.008c0-5.632-4.566-10.199-10.199-10.199s-10.199 4.567-10.199 10.199v31.617h-45.896V26.008c0-5.632-4.566-10.199-10.199-10.199s-10.199 4.567-10.199 10.199v31.617H266.2V26.008c0-5.632-4.566-10.199-10.199-10.199s-10.199 4.567-10.199 10.199v31.617h-42.837V26.008c0-5.632-4.566-10.199-10.199-10.199s-10.199 4.567-10.199 10.199v31.617h-45.896V26.008c0-5.632-4.566-10.199-10.199-10.199s-10.199 4.567-10.199 10.199v31.617H73.434V26.008c0-5.632-4.566-10.199-10.199-10.199s-10.199 4.567-10.199 10.199v31.617H10.199C4.566 57.625 0 62.193 0 67.825v418.167c0 5.632 4.566 10.199 10.199 10.199h491.602c5.633 0 10.199-4.567 10.199-10.199V67.825c0-5.632-4.566-10.2-10.199-10.2zm-10.199 418.168H20.398V152.556h471.203v323.237zm0-343.636H20.398V78.024h32.637v22.438c0 5.632 4.566 10.199 10.199 10.199s10.199-4.567 10.199-10.199V78.024h42.837v22.438c0 5.632 4.566 10.199 10.199 10.199s10.199-4.567 10.199-10.199V78.024h45.896v22.438c0 5.632 4.566 10.199 10.199 10.199s10.199-4.567 10.199-10.199V78.024h42.837v22.438c0 5.632 4.566 10.199 10.199 10.199s10.199-4.567 10.199-10.199V78.024h42.837v22.438c0 5.632 4.566 10.199 10.199 10.199s10.199-4.567 10.199-10.199V78.024h45.896v22.438c0 5.632 4.566 10.199 10.199 10.199s10.199-4.567 10.199-10.199V78.024h42.837v22.438c0 5.632 4.566 10.199 10.199 10.199s10.199-4.567 10.199-10.199V78.024h32.637v54.133z"/><path d="M433.466 200.492H78.534c-5.633 0-10.199 4.567-10.199 10.199v206.966c0 5.632 4.566 10.199 10.199 10.199h354.932c5.633 0 10.199-4.567 10.199-10.199V210.691c0-5.632-4.566-10.199-10.199-10.199zM186.645 407.458H88.733v-48.407h97.912v48.407zm0-68.806H88.733v-48.956h97.912v48.956zm0-69.354H88.733V220.89h97.912v48.408zm118.311 138.16h-97.912v-48.407h97.912v48.407zm0-68.806h-97.912v-48.956h97.912v48.956zm0-69.354h-97.912V220.89h97.912v48.408zm118.311 138.16h-97.912v-48.407h97.912v48.407zm0-68.806h-97.912v-48.956h97.912v48.956zm0-69.354h-97.912V220.89h97.912v48.408z"/></svg>