<svg xmlns="http://www.w3.org/2000/svg" viewBox="0 0 503.596 503.596" style="enable-background:new 0 0 503.596 503.596" xml:space="preserve"><path d="M503.592 84.774c0-10.968-8.892-19.86-19.852-19.86H19.86C8.892 64.914 0 73.806 0 84.774v334.048c0 10.968 8.892 19.86 19.86 19.86h463.884c10.96 0 19.852-8.892 19.852-19.86V84.774h-.004zm-243.924 11.62a3.933 3.933 0 0 1 3.936-3.936h31.476a3.931 3.931 0 0 1 3.928 3.936v31.476a3.92 3.92 0 0 1-3.928 3.928h-31.476a3.924 3.924 0 0 1-3.936-3.928V96.394zm-55.08 0a3.938 3.938 0 0 1 3.936-3.936h31.472a3.935 3.935 0 0 1 3.932 3.936v31.476c0 2.18-1.76 3.928-3.932 3.928h-31.472a3.929 3.929 0 0 1-3.936-3.928V96.394zm-125.9 310.812a3.926 3.926 0 0 1-3.936 3.928H43.284a3.931 3.931 0 0 1-3.936-3.928V375.73a3.938 3.938 0 0 1 3.936-3.936h31.468a3.933 3.933 0 0 1 3.936 3.936v31.476zm0-279.336a3.921 3.921 0 0 1-3.936 3.928H43.284a3.929 3.929 0 0 1-3.936-3.928V96.394a3.938 3.938 0 0 1 3.936-3.936h31.468a3.933 3.933 0 0 1 3.936 3.936v31.476zm55.084 279.336a3.931 3.931 0 0 1-3.936 3.928H98.36a3.925 3.925 0 0 1-3.928-3.928V375.73a3.931 3.931 0 0 1 3.928-3.936h31.476a3.938 3.938 0 0 1 3.936 3.936v31.476zm0-279.336a3.926 3.926 0 0 1-3.936 3.928H98.36a3.922 3.922 0 0 1-3.928-3.928V96.394a3.931 3.931 0 0 1 3.928-3.936h31.476a3.938 3.938 0 0 1 3.936 3.936v31.476zm55.08 279.336a3.931 3.931 0 0 1-3.936 3.928h-31.472a3.926 3.926 0 0 1-3.932-3.928V375.73a3.932 3.932 0 0 1 3.932-3.936h31.472a3.938 3.938 0 0 1 3.936 3.936v31.476zm0-279.336a3.926 3.926 0 0 1-3.936 3.928h-31.472a3.923 3.923 0 0 1-3.932-3.928V96.394a3.932 3.932 0 0 1 3.932-3.936h31.472a3.938 3.938 0 0 1 3.936 3.936v31.476zm7.864 188.468v-135.96c0-11.624 5.964-19.116 15.08-19.116 4.064 0 8.4 1.516 12.796 4.516l95.164 64.652c6.852 4.664 10.632 11.032 10.632 17.936 0 6.892-3.764 13.256-10.616 17.916l-95.14 64.672c-4.404 2.992-8.776 4.508-12.84 4.508-9.112 0-15.076-7.5-15.076-19.124zm47.212 90.868a3.928 3.928 0 0 1-3.932 3.928h-31.472a3.931 3.931 0 0 1-3.936-3.928V375.73a3.938 3.938 0 0 1 3.936-3.936h31.472a3.935 3.935 0 0 1 3.932 3.936v31.476zm55.08 0a3.925 3.925 0 0 1-3.928 3.928h-31.476a3.926 3.926 0 0 1-3.936-3.928V375.73a3.933 3.933 0 0 1 3.936-3.936h31.476a3.931 3.931 0 0 1 3.928 3.936v31.476zm55.076 0a3.922 3.922 0 0 1-3.928 3.928H318.68a3.925 3.925 0 0 1-3.928-3.928V375.73a3.931 3.931 0 0 1 3.928-3.936h31.476a3.926 3.926 0 0 1 3.928 3.936v31.476zm0-279.336a3.917 3.917 0 0 1-3.928 3.928H318.68a3.922 3.922 0 0 1-3.928-3.928V96.394a3.931 3.931 0 0 1 3.928-3.936h31.476a3.926 3.926 0 0 1 3.928 3.936v31.476zm51.152 283.264h-31.48a3.93 3.93 0 0 1-3.928-3.928V375.73a3.937 3.937 0 0 1 3.928-3.936h31.476a3.933 3.933 0 0 1 3.936 3.936v31.476h.004a3.926 3.926 0 0 1-3.936 3.928zm0-279.336h-31.48a3.927 3.927 0 0 1-3.928-3.928V96.394a3.937 3.937 0 0 1 3.928-3.936h31.476a3.933 3.933 0 0 1 3.936 3.936v31.476h.004a3.921 3.921 0 0 1-3.936 3.928zm59.012 275.408a3.926 3.926 0 0 1-3.936 3.928h-31.468a3.931 3.931 0 0 1-3.936-3.928V375.73a3.938 3.938 0 0 1 3.936-3.936h31.468a3.933 3.933 0 0 1 3.936 3.936v31.476zm0-279.336a3.921 3.921 0 0 1-3.936 3.928h-31.468a3.929 3.929 0 0 1-3.936-3.928V96.394a3.938 3.938 0 0 1 3.936-3.936h31.468a3.933 3.933 0 0 1 3.936 3.936v31.476z"/></svg>